# xmcd
#
# Track frame offsets:
#	182
#	22167
#	56035
#	75790
#	92055
#	110092
#	124580
#	143822
#	161932
#
# Disc length: 2406 seconds
#
# Revision: 0
# Processed by: cddbd v1.4PL0 Copyright (c) Steve Scherf et al.
# Submitted via: dBpowerAMP V4.0
#
DISCID=75096409
DTITLE=Millie Jackson - For Men Only
DYEAR=1980
DGENRE=Soul
TTITLE0=This Is Where I Came In
TTITLE1=This Is It
TTITLE2=If That Don't Turn You On
TTITLE3=I Wish That I Could Hurt That Way Again
TTITLE4=A Fool's Affair
TTITLE5=You Must Have Known I Needed love
TTITLE6=Despair
TTITLE7=Not In Your Life
TTITLE8=Ain't No Commin' Back
EXTD=Every song is a part of the story that fills the cd.
EXTT0=
EXTT1=
EXTT2=
EXTT3=
EXTT4=
EXTT5=
EXTT6=
EXTT7=
EXTT8=
PLAYORDER=
